<svg width="431" height="96" viewBox="0 0 431 96" fill="none" xmlns="http://www.w3.org/2000/svg">
<path d="M62.6875 92.125C57.2292 94.4167 51.3333 95.5625 45 95.5625C38.6667 95.5625 32.7708 94.4167 27.3125 92.125C21.8542 89.7917 17.1667 86.5833 13.25 82.5C9.375 78.375 6.33333 73.375 4.125 67.5C1.91667 61.5833 0.8125 55.1458 0.8125 48.1875C0.8125 41.2292 1.91667 34.8125 4.125 28.9375C6.33333 23.0208 9.375 18.0208 13.25 13.9375C17.1667 9.8125 21.8542 6.60417 27.3125 4.3125C32.7708 1.97917 38.6667 0.8125 45 0.8125C51.3333 0.8125 57.2292 1.97917 62.6875 4.3125C68.1458 6.60417 72.8125 9.8125 76.6875 13.9375C80.6042 18.0208 83.6667 23.0208 85.875 28.9375C88.0833 34.8125 89.1875 41.2292 89.1875 48.1875C89.1875 55.1458 88.0833 61.5833 85.875 67.5C83.6667 73.375 80.6042 78.375 76.6875 82.5C72.8125 86.5833 68.1458 89.7917 62.6875 92.125ZM27.0625 8C24.3958 9.25 22.2292 10.9583 20.5625 13.125C18.8958 15.2917 17.7917 17.75 17.25 20.5C16.75 23.25 16.5417 26.1667 16.625 29.25C16.75 32.2917 17.2292 35.5 18.0625 38.875C18.8958 42.2083 19.8333 45.3958 20.875 48.4375C21.9167 51.4375 23.125 54.4375 24.5 57.4375C25.9167 60.5625 27.4167 63.5417 29 66.375C30.5833 69.2083 32.4167 72.0833 34.5 75C36.625 77.9167 38.7708 80.4375 40.9375 82.5625C43.1042 84.6458 45.4792 86.3542 48.0625 87.6875C50.6875 89.0208 53.2917 89.6875 55.875 89.6875C58.125 89.6875 60.4792 89.125 62.9375 88C65.6458 86.75 67.8125 85.0625 69.4375 82.9375C71.1042 80.7708 72.1875 78.3125 72.6875 75.5625C73.2292 72.8125 73.4375 69.9375 73.3125 66.9375C73.2292 63.9375 72.7708 60.7708 71.9375 57.4375C71.1042 54.0625 70.1667 50.8958 69.125 47.9375C68.0833 44.9792 66.875 42 65.5 39C63.7083 35 61.75 31.25 59.625 27.75C57.5417 24.2083 55.1458 20.7708 52.4375 17.4375C49.7708 14.1042 46.8333 11.4583 43.625 9.5C40.4167 7.5 37.2083 6.5 34 6.5C31.6667 6.5 29.3542 7 27.0625 8ZM94.0625 78.8125C92.4792 74.7708 92.8125 71.125 95.0625 67.875C97.3125 64.5833 100.271 62.9375 103.938 62.9375C106.062 62.9375 108.083 63.6458 110 65.0625C111.958 66.4375 113.604 68.5833 114.938 71.5C115.312 72.2917 115.833 73.5 116.5 75.125C117.208 76.7083 117.75 77.9375 118.125 78.8125C118.5 79.6458 119.042 80.75 119.75 82.125C120.5 83.4583 121.146 84.5208 121.688 85.3125C122.271 86.0625 123.021 86.9167 123.938 87.875C124.854 88.7917 125.771 89.5 126.688 90C127.604 90.4583 128.688 90.875 129.938 91.25C131.229 91.5833 132.583 91.75 134 91.75C137.417 91.75 140.521 90.4583 143.312 87.875C146.146 85.2917 147.562 82.5625 147.562 79.6875C147.562 77.1458 146.958 74.75 145.75 72.5C144.583 70.2083 143 68.1458 141 66.3125C139 64.4792 136.708 62.7083 134.125 61C131.542 59.25 128.812 57.5625 125.938 55.9375C123.104 54.3125 120.25 52.6667 117.375 51C114.5 49.2917 111.771 47.4583 109.188 45.5C106.604 43.5 104.312 41.4167 102.312 39.25C100.312 37.0833 98.7083 34.5833 97.5 31.75C96.3333 28.9167 95.75 25.9167 95.75 22.75C95.75 19.9167 96.4792 17.1875 97.9375 14.5625C99.3958 11.9375 101.417 9.60417 104 7.5625C106.625 5.52083 109.938 3.89583 113.938 2.6875C117.979 1.4375 122.375 0.8125 127.125 0.8125C137.042 0.8125 145 1.97917 151 4.3125C157 6.64583 161.5 10.1875 164.5 14.9375C166.5 18.4375 167.167 21.5833 166.5 24.375C165.833 27.125 164.375 29.3542 162.125 31.0625C159.875 32.7708 157.417 33.625 154.75 33.625C151.208 33.625 148.562 32.0833 146.812 29C142.229 20.8333 139.062 15.5208 137.312 13.0625C133.354 7.52083 129.604 4.72917 126.062 4.6875C123.229 4.6875 121.083 5.6875 119.625 7.6875C118.208 9.64583 117.5 11.8958 117.5 14.4375C117.5 17.8542 118.458 21.1042 120.375 24.1875C122.292 27.2708 124.771 30.0208 127.812 32.4375C130.896 34.8125 134.271 37.1667 137.938 39.5C141.646 41.7917 145.333 44.0833 149 46.375C152.708 48.6667 156.083 51.0208 159.125 53.4375C162.208 55.8542 164.708 58.6042 166.625 61.6875C168.542 64.7708 169.5 68.0417 169.5 71.5C169.5 76.4167 167.708 80.75 164.125 84.5C160.583 88.2083 156 90.9792 150.375 92.8125C144.792 94.6458 138.667 95.5625 132 95.5625C128.375 95.5625 124.667 95.2292 120.875 94.5625C117.125 93.9375 113.417 93 109.75 91.75C106.083 90.5 102.833 88.75 100 86.5C97.1667 84.25 95.1875 81.6875 94.0625 78.8125ZM173.562 93C172.604 93 172.146 92.5 172.188 91.5C172.229 90.4583 172.688 89.6875 173.562 89.1875C174.396 88.6875 175.125 87.75 175.75 86.375C176.417 85 176.938 83.1667 177.312 80.875C177.688 78.5833 178 76.3125 178.25 74.0625C178.5 71.8125 178.667 69.0208 178.75 65.6875C178.875 62.3125 178.938 59.4583 178.938 57.125C178.979 54.75 179 51.7708 179 48.1875C179 35.3958 178.854 27.1042 178.562 23.3125C177.896 14.2292 176.229 8.875 173.562 7.25C172.688 6.75 172.229 5.97917 172.188 4.9375C172.146 3.89583 172.604 3.375 173.562 3.375H206.125C207.083 3.375 207.542 3.89583 207.5 4.9375C207.5 5.97917 207.042 6.75 206.125 7.25C205.458 7.66667 204.854 8.29167 204.312 9.125C203.812 9.95833 203.375 11.0833 203 12.5C202.625 13.875 202.312 15.2292 202.062 16.5625C201.812 17.8958 201.604 19.6458 201.438 21.8125C201.271 23.9792 201.125 25.8333 201 27.375C200.917 28.875 200.854 30.9583 200.812 33.625C200.771 36.2917 200.75 38.3542 200.75 39.8125C200.75 41.2708 200.75 43.4167 200.75 46.25H230.188C230.188 45.625 230.188 44.6667 230.188 43.375C230.188 39.7917 230.167 37.0833 230.125 35.25C230.125 33.375 230.083 30.875 230 27.75C229.917 24.625 229.75 22.1667 229.5 20.375C229.292 18.5833 229 16.6667 228.625 14.625C228.25 12.5833 227.729 10.9792 227.062 9.8125C226.438 8.64583 225.688 7.79167 224.812 7.25C223.938 6.75 223.479 5.97917 223.438 4.9375C223.396 3.89583 223.854 3.375 224.812 3.375H257.312C258.271 3.375 258.729 3.89583 258.688 4.9375C258.688 5.97917 258.229 6.75 257.312 7.25C256.438 7.79167 255.667 8.70833 255 10C254.375 11.25 253.875 13 253.5 15.25C253.125 17.4583 252.812 19.5208 252.562 21.4375C252.354 23.3542 252.208 26.0208 252.125 29.4375C252.042 32.8542 251.979 35.5208 251.938 37.4375C251.938 39.3542 251.938 42.2292 251.938 46.0625C251.938 47.0208 251.938 47.7292 251.938 48.1875C251.938 60.8958 252.042 69 252.25 72.5C252.875 82 254.562 87.5625 257.312 89.1875C258.188 89.6875 258.646 90.4583 258.688 91.5C258.729 92.5 258.271 93 257.312 93H224.812C223.854 93 223.396 92.5 223.438 91.5C223.479 90.4583 223.938 89.6875 224.812 89.1875C226.021 88.4792 227 86.8958 227.75 84.4375C228.5 81.9375 229.042 78.6667 229.375 74.625C229.708 70.5417 229.917 66.7292 230 63.1875C230.125 59.6042 230.188 55.25 230.188 50.125H200.75C200.75 50.75 200.75 51.7083 200.75 53C200.75 56.5833 200.75 59.3125 200.75 61.1875C200.792 63.0208 200.854 65.5 200.938 68.625C201.021 71.75 201.167 74.2083 201.375 76C201.625 77.7917 201.938 79.7292 202.312 81.8125C202.688 83.8542 203.188 85.4583 203.812 86.625C204.479 87.7917 205.25 88.6458 206.125 89.1875C207 89.6875 207.458 90.4583 207.5 91.5C207.542 92.5 207.083 93 206.125 93H173.562ZM264.562 7.25C263.646 6.75 263.167 5.97917 263.125 4.9375C263.125 3.89583 263.604 3.375 264.562 3.375H297.062C298.021 3.375 298.479 3.89583 298.438 4.9375C298.396 5.97917 297.938 6.75 297.062 7.25C295.771 8.04167 294.729 9.52083 293.938 11.6875C293.146 13.8125 292.583 16.9583 292.25 21.125C291.958 25.25 291.792 28.625 291.75 31.25C291.708 33.875 291.688 38.0208 291.688 43.6875C291.688 45.6875 291.688 47.1875 291.688 48.1875C291.688 59.7292 291.854 67.3125 292.188 70.9375C293.021 79.5208 295.25 85.3542 298.875 88.4375C301.5 90.6458 305.042 91.75 309.5 91.75C312.583 91.75 315.292 91.4375 317.625 90.8125C320 90.1458 322.312 88.875 324.562 87C326.812 85.125 328.646 82.6042 330.062 79.4375C331.521 76.2708 332.688 72.0625 333.562 66.8125C334.438 61.5625 334.875 55.3542 334.875 48.1875C334.875 35.4792 334.75 27.375 334.5 23.875C333.917 14.4167 332.25 8.875 329.5 7.25C328.625 6.75 328.167 5.97917 328.125 4.9375C328.083 3.89583 328.542 3.375 329.5 3.375H346.625C347.583 3.375 348.042 3.89583 348 4.9375C348 5.97917 347.542 6.75 346.625 7.25C344.375 8.625 342.917 13.2917 342.25 21.25C341.583 29.2083 341.25 40.8333 341.25 56.125C341.25 68.3333 338.396 77.9583 332.688 85C326.979 92.0417 319.208 95.5625 309.375 95.5625C296.167 95.5625 286.292 92.125 279.75 85.25C273.208 78.375 269.938 68.6667 269.938 56.125C269.938 40.8333 269.604 29.2083 268.938 21.25C268.271 13.2917 266.812 8.625 264.562 7.25ZM353.938 93C352.979 93 352.521 92.5 352.562 91.5C352.604 90.4583 353.062 89.6875 353.938 89.1875C355.479 88.2708 356.708 86.5833 357.625 84.125C358.583 81.6667 359.271 78.3333 359.688 74.125C360.104 69.875 360.354 65.9583 360.438 62.375C360.562 58.7917 360.625 54.1042 360.625 48.3125C360.625 42.5208 360.562 37.8333 360.438 34.25C360.354 30.625 360.104 26.6875 359.688 22.4375C359.271 18.1875 358.583 14.8333 357.625 12.375C356.708 9.875 355.479 8.16667 353.938 7.25C353.062 6.75 352.604 5.97917 352.562 4.9375C352.521 3.89583 352.979 3.375 353.938 3.375H373.812C375.062 3.375 376.042 3.9375 376.75 5.0625L417.812 73.8125C418.438 68.6042 418.75 60.8333 418.75 50.5C418.75 45.5417 418.688 41.25 418.562 37.625C418.438 34 418.188 29.7917 417.812 25C417.438 20.2083 416.75 16.2917 415.75 13.25C414.792 10.1667 413.562 8.16667 412.062 7.25C411.188 6.75 410.729 5.97917 410.688 4.9375C410.646 3.89583 411.104 3.375 412.062 3.375H429.25C430.208 3.375 430.667 3.89583 430.625 4.9375C430.625 5.97917 430.167 6.75 429.25 7.25C427.75 8.16667 426.5 10.1667 425.5 13.25C424.542 16.2917 423.875 20.2083 423.5 25C423.125 29.7917 422.875 34 422.75 37.625C422.625 41.25 422.562 45.5417 422.562 50.5C422.562 73.0417 424.312 85.375 427.812 87.5C428.812 88.125 429.417 88.8958 429.625 89.8125C429.875 90.6875 429.792 91.4375 429.375 92.0625C429 92.6875 428.479 93 427.812 93H409.5C408.25 93 407.271 92.4375 406.562 91.3125L365.375 22.625C364.75 27.8333 364.438 36.3958 364.438 48.3125C364.438 54.1042 364.479 58.7917 364.562 62.375C364.688 65.9583 364.958 69.875 365.375 74.125C365.792 78.3333 366.458 81.6667 367.375 84.125C368.333 86.5833 369.583 88.2708 371.125 89.1875C372 89.6875 372.458 90.4583 372.5 91.5C372.542 92.5 372.083 93 371.125 93H353.938Z" fill="white"/>
</svg>
