<svg width="827" height="118" viewBox="0 0 827 118" fill="none" xmlns="http://www.w3.org/2000/svg">
<path d="M2.4375 78.8125C0.854167 74.7708 1.1875 71.125 3.4375 67.875C5.6875 64.5833 8.64583 62.9375 12.3125 62.9375C14.4375 62.9375 16.4583 63.6458 18.375 65.0625C20.3333 66.4375 21.9792 68.5833 23.3125 71.5C23.6875 72.2917 24.2083 73.5 24.875 75.125C25.5833 76.7083 26.125 77.9375 26.5 78.8125C26.875 79.6458 27.4167 80.75 28.125 82.125C28.875 83.4583 29.5208 84.5208 30.0625 85.3125C30.6458 86.0625 31.3958 86.9167 32.3125 87.875C33.2292 88.7917 34.1458 89.5 35.0625 90C35.9792 90.4583 37.0625 90.875 38.3125 91.25C39.6042 91.5833 40.9583 91.75 42.375 91.75C45.7917 91.75 48.8958 90.4583 51.6875 87.875C54.5208 85.2917 55.9375 82.5625 55.9375 79.6875C55.9375 77.1458 55.3333 74.75 54.125 72.5C52.9583 70.2083 51.375 68.1458 49.375 66.3125C47.375 64.4792 45.0833 62.7083 42.5 61C39.9167 59.25 37.1875 57.5625 34.3125 55.9375C31.4792 54.3125 28.625 52.6667 25.75 51C22.875 49.2917 20.1458 47.4583 17.5625 45.5C14.9792 43.5 12.6875 41.4167 10.6875 39.25C8.6875 37.0833 7.08333 34.5833 5.875 31.75C4.70833 28.9167 4.125 25.9167 4.125 22.75C4.125 19.9167 4.85417 17.1875 6.3125 14.5625C7.77083 11.9375 9.79167 9.60417 12.375 7.5625C15 5.52083 18.3125 3.89583 22.3125 2.6875C26.3542 1.4375 30.75 0.8125 35.5 0.8125C45.4167 0.8125 53.375 1.97917 59.375 4.3125C65.375 6.64583 69.875 10.1875 72.875 14.9375C74.875 18.4375 75.5417 21.5833 74.875 24.375C74.2083 27.125 72.75 29.3542 70.5 31.0625C68.25 32.7708 65.7917 33.625 63.125 33.625C59.5833 33.625 56.9375 32.0833 55.1875 29C50.6042 20.8333 47.4375 15.5208 45.6875 13.0625C41.7292 7.52083 37.9792 4.72917 34.4375 4.6875C31.6042 4.6875 29.4583 5.6875 28 7.6875C26.5833 9.64583 25.875 11.8958 25.875 14.4375C25.875 17.8542 26.8333 21.1042 28.75 24.1875C30.6667 27.2708 33.1458 30.0208 36.1875 32.4375C39.2708 34.8125 42.6458 37.1667 46.3125 39.5C50.0208 41.7917 53.7083 44.0833 57.375 46.375C61.0833 48.6667 64.4583 51.0208 67.5 53.4375C70.5833 55.8542 73.0833 58.6042 75 61.6875C76.9167 64.7708 77.875 68.0417 77.875 71.5C77.875 76.4167 76.0833 80.75 72.5 84.5C68.9583 88.2083 64.375 90.9792 58.75 92.8125C53.1667 94.6458 47.0417 95.5625 40.375 95.5625C36.75 95.5625 33.0417 95.2292 29.25 94.5625C25.5 93.9375 21.7917 93 18.125 91.75C14.4583 90.5 11.2083 88.75 8.375 86.5C5.54167 84.25 3.5625 81.6875 2.4375 78.8125ZM80.6875 32.8125C79.8125 32.3125 79.3542 31.5833 79.3125 30.625C79.2708 29.625 79.7292 29.0833 80.6875 29L104.375 26.8125C105.5 26.7292 106.375 27 107 27.625C107.667 28.25 108 29.125 108 30.25C108 32.7083 107.979 36.9583 107.938 43C107.896 49 107.875 53.6875 107.875 57.0625C107.875 57.7708 107.833 59.1875 107.75 61.3125C107.667 63.3958 107.604 65.2917 107.562 67C107.562 68.6667 107.604 70.6667 107.688 73C107.771 75.3333 108.021 77.375 108.438 79.125C108.854 80.875 109.396 82.5625 110.062 84.1875C110.729 85.7708 111.667 87 112.875 87.875C114.125 88.75 115.604 89.1875 117.312 89.1875C119.938 89.1875 122.188 88.625 124.062 87.5C125.938 86.3333 127.271 84.9583 128.062 83.375C128.854 81.75 129.458 80.125 129.875 78.5C130.292 76.875 130.5 75.5 130.5 74.375V72.625H130.625V50C130.625 49.8333 130.625 49.2708 130.625 48.3125C130.625 47.3125 130.625 46.625 130.625 46.25C130.625 45.875 130.604 45.2292 130.562 44.3125C130.521 43.3542 130.438 42.625 130.312 42.125C130.229 41.5833 130.104 40.8958 129.938 40.0625C129.812 39.2292 129.604 38.5417 129.312 38C129.021 37.4167 128.688 36.8125 128.312 36.1875C127.979 35.5208 127.542 34.9375 127 34.4375C126.5 33.9375 125.917 33.5 125.25 33.125C124.375 32.625 123.917 31.875 123.875 30.875C123.833 29.875 124.292 29.3333 125.25 29.25L148.688 27.1875C149.854 27.0625 150.75 27.3125 151.375 27.9375C152.042 28.5208 152.375 29.3958 152.375 30.5625V58.5625C152.375 59.3125 152.354 60.5625 152.312 62.3125C152.312 64.0625 152.312 65.4583 152.312 66.5C152.312 67.5417 152.333 68.9167 152.375 70.625C152.417 72.3333 152.479 73.75 152.562 74.875C152.646 75.9583 152.771 77.2292 152.938 78.6875C153.104 80.1458 153.312 81.375 153.562 82.375C153.854 83.375 154.188 84.375 154.562 85.375C154.938 86.375 155.396 87.2083 155.938 87.875C156.479 88.5 157.083 88.9792 157.75 89.3125C158.75 89.8125 159.208 90.5625 159.125 91.5625C159.042 92.5208 158.375 93 157.125 93C150.208 93 144.729 92.1667 140.688 90.5C136.646 88.8333 133.854 86.25 132.312 82.75C129.229 89.5833 123.896 93 116.312 93C113.396 93 110.583 92.7083 107.875 92.125C105.208 91.5417 102.521 90.5 99.8125 89C97.1042 87.5 94.75 85.5833 92.75 83.25C90.7917 80.9167 89.1875 77.8542 87.9375 74.0625C86.7292 70.2708 86.125 65.9583 86.125 61.125C86.125 60.5417 86.125 59.6875 86.125 58.5625C86.125 55.0208 86.0833 52.2917 86 50.375C85.9583 48.4167 85.7917 46.0417 85.5 43.25C85.2083 40.4583 84.6458 38.2292 83.8125 36.5625C83.0208 34.8542 81.9792 33.6042 80.6875 32.8125ZM208.188 26.5625C211.104 26.5625 213.896 26.8542 216.562 27.4375C219.271 27.9792 221.979 29 224.688 30.5C227.438 32 229.792 33.9167 231.75 36.25C233.75 38.5417 235.354 41.5833 236.562 45.375C237.812 49.1667 238.438 53.4792 238.438 58.3125C238.438 58.9375 238.438 59.875 238.438 61.125C238.438 64.0833 238.438 66.375 238.438 68C238.438 69.625 238.521 71.8125 238.688 74.5625C238.896 77.3125 239.167 79.5 239.5 81.125C239.875 82.75 240.417 84.3542 241.125 85.9375C241.875 87.4792 242.771 88.5625 243.812 89.1875C244.688 89.6875 245.146 90.4583 245.188 91.5C245.229 92.5 244.771 93 243.812 93H211.25C210.292 93 209.833 92.5 209.875 91.5C209.917 90.4583 210.375 89.6875 211.25 89.1875C214.833 87.0208 216.625 78.1042 216.625 62.4375C216.625 61.7292 216.646 60.5208 216.688 58.8125C216.771 57.0625 216.833 55.4583 216.875 54C216.917 52.5417 216.896 50.8125 216.812 48.8125C216.771 46.7708 216.646 44.9583 216.438 43.375C216.229 41.75 215.875 40.0833 215.375 38.375C214.875 36.6667 214.25 35.25 213.5 34.125C212.792 33 211.833 32.0833 210.625 31.375C209.417 30.625 208.021 30.25 206.438 30.25C204.396 30.25 202.583 30.6667 201 31.5C199.417 32.2917 198.208 33.2708 197.375 34.4375C196.542 35.5625 195.854 36.8958 195.312 38.4375C194.771 39.9375 194.417 41.2292 194.25 42.3125C194.125 43.3542 194.042 44.375 194 45.375V58.3125C194 58.9375 194 59.875 194 61.125C194 64.0833 194 66.375 194 68C194 69.625 194.083 71.8125 194.25 74.5625C194.458 77.3125 194.729 79.5 195.062 81.125C195.438 82.75 195.979 84.3542 196.688 85.9375C197.438 87.4792 198.333 88.5625 199.375 89.1875C200.25 89.6875 200.708 90.4583 200.75 91.5C200.792 92.5 200.333 93 199.375 93H166.875C165.917 93 165.458 92.5 165.5 91.5C165.542 90.4583 166 89.6875 166.875 89.1875C168.125 88.4375 169.146 87.25 169.938 85.625C170.729 84 171.271 82.0208 171.562 79.6875C171.854 77.3542 172.042 75.3958 172.125 73.8125C172.208 72.2292 172.25 70.3125 172.25 68.0625V50.625C172.25 46.2083 171.896 42.4375 171.188 39.3125C170.521 36.1875 169.083 33.9792 166.875 32.6875C166 32.1875 165.542 31.4583 165.5 30.5C165.458 29.5 165.917 28.9583 166.875 28.875L190.312 26.8125C191.479 26.7292 192.375 27 193 27.625C193.667 28.2083 194 29.0833 194 30.25V33.5C197.208 28.875 201.938 26.5625 208.188 26.5625ZM247.688 58.5625C247.688 53.5625 248.562 49.0208 250.312 44.9375C252.104 40.8125 254.479 37.4375 257.438 34.8125C260.438 32.1875 263.812 30.1667 267.562 28.75C271.354 27.2917 275.312 26.5625 279.438 26.5625C288.604 26.5625 295.208 30.4375 299.25 38.1875V28.75C299.083 17.0833 297.292 10.125 293.875 7.875C293.208 7.5 292.771 7 292.562 6.375C292.396 5.75 292.438 5.20833 292.688 4.75C292.979 4.29167 293.375 4.0625 293.875 4.0625L321 0.5625V65.5C321 79 322.792 86.8542 326.375 89.0625C327.292 89.6042 327.604 90.2917 327.312 91.125C326.812 92.375 324.854 93 321.438 93C309.979 93 303.021 89.5833 300.562 82.75C296.521 89.5833 289.896 93 280.688 93C274.771 93 269.333 91.6667 264.375 89C259.417 86.2917 255.396 82.2917 252.312 77C249.229 71.6667 247.688 65.5208 247.688 58.5625ZM280.062 30.4375C274.229 30.4375 270.167 33.75 267.875 40.375C265.792 46.5417 265.542 54.1042 267.125 63.0625C268.667 71.4375 271.292 78.1042 275 83.0625C277.917 86.9375 281.021 88.875 284.312 88.875C285.979 88.875 287.542 88.6458 289 88.1875C290.458 87.6875 291.667 87.0833 292.625 86.375C293.625 85.625 294.521 84.7917 295.312 83.875C296.104 82.9583 296.729 82.0417 297.188 81.125C297.688 80.2083 298.083 79.3958 298.375 78.6875C298.667 77.9375 298.875 77.3333 299 76.875L299.25 76.125V74.8125V51.375C299.25 51.125 299.229 50.7292 299.188 50.1875C299.146 49.6042 298.979 48.625 298.688 47.25C298.438 45.8333 298.062 44.4375 297.562 43.0625C297.104 41.6875 296.396 40.2292 295.438 38.6875C294.479 37.1042 293.354 35.7292 292.062 34.5625C290.771 33.3958 289.083 32.4167 287 31.625C284.917 30.8333 282.604 30.4375 280.062 30.4375ZM331.25 76.625C331.25 74.7917 331.75 73.0625 332.75 71.4375C333.792 69.8125 335.042 68.4583 336.5 67.375C338 66.2917 339.875 65.2292 342.125 64.1875C344.375 63.1458 346.396 62.3333 348.188 61.75C350.021 61.125 352.104 60.4167 354.438 59.625C356.812 58.8333 358.562 58.2292 359.688 57.8125C360.688 57.3958 362 56.9167 363.625 56.375C365.25 55.7917 366.542 55.3333 367.5 55C368.5 54.6667 369.604 54.2083 370.812 53.625C372.062 53 373.021 52.375 373.688 51.75C374.396 51.125 375 50.3333 375.5 49.375C376.042 48.4167 376.354 47.3333 376.438 46.125C376.229 40.9583 375.438 37.0625 374.062 34.4375C372.729 31.7708 370.417 30.4375 367.125 30.4375C366 30.4375 364.958 30.6667 364 31.125C363.042 31.5833 362.25 32.125 361.625 32.75C361.042 33.3333 360.417 34.1875 359.75 35.3125C359.125 36.4375 358.646 37.375 358.312 38.125C358.021 38.8333 357.604 39.875 357.062 41.25C356.562 42.625 356.208 43.5417 356 44C354.083 48.5 350.917 50.75 346.5 50.75C343.958 50.75 341.708 49.9167 339.75 48.25C337.792 46.5417 336.75 44.3542 336.625 41.6875C336.542 39.5625 336.979 37.6458 337.938 35.9375C338.938 34.2292 340.354 32.8542 342.188 31.8125C344.021 30.7292 345.958 29.8333 348 29.125C350.083 28.375 352.354 27.8333 354.812 27.5C357.271 27.125 359.417 26.875 361.25 26.75C363.125 26.625 364.958 26.5625 366.75 26.5625C369.958 26.5625 372.979 26.8542 375.812 27.4375C378.646 27.9792 381.458 29 384.25 30.5C387.042 32 389.438 33.9167 391.438 36.25C393.438 38.5417 395.042 41.5833 396.25 45.375C397.5 49.125 398.125 53.4375 398.125 58.3125C398.125 58.9375 398.125 59.875 398.125 61.125C398.083 62.9167 398.083 64.7917 398.125 66.75C398.167 68.6667 398.208 70.5625 398.25 72.4375C398.333 74.2708 398.5 76.0833 398.75 77.875C399 79.6667 399.292 81.2917 399.625 82.75C400 84.2083 400.521 85.5 401.188 86.625C401.854 87.7083 402.625 88.5208 403.5 89.0625C404.417 89.6042 404.729 90.2708 404.438 91.0625C403.938 92.3542 401.958 93 398.5 93C394.042 93 390.292 92.5 387.25 91.5C384.25 90.5 382.021 89.2292 380.562 87.6875C379.146 86.1042 378.083 84.1667 377.375 81.875C373.958 89.2917 367.646 93 358.438 93C350.104 93 343.479 91.4583 338.562 88.375C333.688 85.2917 331.25 81.375 331.25 76.625ZM363.688 60.5C360.229 62 357.583 64 355.75 66.5C353.958 69 353.062 72.5417 353.062 77.125C353.062 78.0417 353.208 79.0833 353.5 80.25C353.833 81.4167 354.333 82.6667 355 84C355.708 85.3333 356.75 86.4375 358.125 87.3125C359.542 88.1875 361.167 88.625 363 88.625C365.667 88.625 367.917 87.8958 369.75 86.4375C371.625 84.9792 373 83.0417 373.875 80.625C374.792 78.1667 375.417 75.7917 375.75 73.5C376.125 71.2083 376.312 68.7917 376.312 66.25C376.312 64.7083 376.333 62.5 376.375 59.625C376.417 56.75 376.438 54.6875 376.438 53.4375C375.438 54.3542 374.146 55.2708 372.562 56.1875C370.979 57.1042 369.646 57.8125 368.562 58.3125C367.479 58.8125 365.854 59.5417 363.688 60.5ZM422 117.062C414.042 117.062 408.208 114.979 404.5 110.812C402 108.021 401.062 105.021 401.688 101.812C402.188 99.0208 403.75 97.1042 406.375 96.0625C407.417 95.6458 408.583 95.4375 409.875 95.4375C412.625 95.3958 414.812 95.9167 416.438 97C418.104 98.0833 419.229 99.375 419.812 100.875C420.438 102.417 420.917 103.958 421.25 105.5C421.625 107.042 422.146 108.354 422.812 109.438C423.521 110.521 424.542 111.062 425.875 111.062C427.125 111.062 428.333 110.646 429.5 109.812C430.667 109.021 431.667 108.062 432.5 106.938C433.333 105.812 434.167 104.396 435 102.688C435.833 100.979 436.479 99.5208 436.938 98.3125C437.438 97.1042 437.979 95.6875 438.562 94.0625C438.729 93.5625 438.854 93.2083 438.938 93H432C430.875 93 429.854 92.6667 428.938 92C428.021 91.3333 427.375 90.4375 427 89.3125C422.125 75.6875 418.75 66.25 416.875 61C416.458 59.9167 415.792 58.1458 414.875 55.6875C414 53.2292 413.312 51.375 412.812 50.125C412.354 48.875 411.708 47.2292 410.875 45.1875C410.083 43.1042 409.396 41.4792 408.812 40.3125C408.229 39.1458 407.562 37.9167 406.812 36.625C406.104 35.2917 405.417 34.2708 404.75 33.5625C404.083 32.8125 403.438 32.3125 402.812 32.0625C402.188 31.8125 401.75 31.4375 401.5 30.9375C401.292 30.4375 401.312 30 401.562 29.625C401.854 29.2083 402.312 29 402.938 29H430.562C431.188 29 431.604 29.2083 431.812 29.625C432.021 30 431.979 30.4375 431.688 30.9375C431.438 31.3958 431.021 31.7708 430.438 32.0625C429.979 32.3125 429.688 32.7917 429.562 33.5C429.479 34.2083 429.562 35.1875 429.812 36.4375C430.062 37.6458 430.375 38.9167 430.75 40.25C431.125 41.5417 431.646 43.1458 432.312 45.0625C433.021 46.9375 433.667 48.625 434.25 50.125C434.875 51.625 435.604 53.4792 436.438 55.6875C437.312 57.8542 438 59.625 438.5 61C441.708 70.0417 443.542 75.375 444 77C444.75 75 445.146 73.9375 445.188 73.8125C453.812 50.4792 454.5 36.8125 447.25 32.8125C446.292 32.3125 445.812 31.5625 445.812 30.5625C445.812 29.5208 446.292 29 447.25 29H471.938C472.562 29 473 29.25 473.25 29.75C473.5 30.25 473.5 30.8125 473.25 31.4375C473.042 32.0208 472.604 32.4792 471.938 32.8125C470.896 33.3125 469.812 34.25 468.688 35.625C467.604 36.9583 466.438 38.8125 465.188 41.1875C463.938 43.5208 462.812 45.75 461.812 47.875C460.812 50 459.604 52.8333 458.188 56.375C456.812 59.9167 455.708 62.75 454.875 64.875C454.083 67 452.979 69.9792 451.562 73.8125C450.812 75.8542 448.604 82.25 444.938 93C444.729 93.5417 444.438 94.3542 444.062 95.4375C443.021 98.4375 442.188 100.667 441.562 102.125C440.979 103.625 440.042 105.5 438.75 107.75C437.5 110.042 436.188 111.729 434.812 112.812C433.479 113.938 431.708 114.917 429.5 115.75C427.292 116.625 424.792 117.062 422 117.062ZM515.125 67.5C512.917 61.5833 511.812 55.1458 511.812 48.1875C511.812 41.2292 512.917 34.8125 515.125 28.9375C517.333 23.0208 520.375 18.0208 524.25 13.9375C528.167 9.8125 532.854 6.60417 538.312 4.3125C543.771 1.97917 549.667 0.8125 556 0.8125C563.417 0.8125 570.042 2.02083 575.875 4.4375C581.75 6.85417 586.125 10.3542 589 14.9375C591.083 18.4375 591.812 21.5625 591.188 24.3125C590.562 27.0625 589.146 29.2917 586.938 31C584.729 32.6667 582.312 33.5 579.688 33.5C576.229 33.5 573.5 32 571.5 29C570.833 27.9583 569.917 26.4583 568.75 24.5C567.583 22.5417 566.625 20.9792 565.875 19.8125C565.125 18.6042 564.146 17.1667 562.938 15.5C561.771 13.8333 560.625 12.5208 559.5 11.5625C558.375 10.5625 557.062 9.5625 555.562 8.5625C554.104 7.5625 552.479 6.83333 550.688 6.375C548.938 5.91667 547.042 5.6875 545 5.6875C539.5 5.6875 535.188 7.77083 532.062 11.9375C528.979 16.1042 527.438 21.625 527.438 28.5C527.438 30.9583 527.75 33.8125 528.375 37.0625C529 40.2708 529.917 43.6458 531.125 47.1875C532.333 50.7292 533.771 54.2708 535.438 57.8125C537.104 61.3542 539.042 64.7292 541.25 67.9375C543.5 71.1458 545.854 74 548.312 76.5C550.812 78.9583 553.562 80.9167 556.562 82.375C559.604 83.8333 562.667 84.5625 565.75 84.5625C570.708 84.5625 575.438 83.1875 579.938 80.4375C584.438 77.6875 587.938 74.4583 590.438 70.75C591.188 69.625 592.083 69.0625 593.125 69.0625C594.125 69.0625 594.854 69.5 595.312 70.375C595.771 71.25 595.688 72.3958 595.062 73.8125C594.021 75.9792 592.354 78.2708 590.062 80.6875C587.771 83.1042 584.979 85.4583 581.688 87.75C578.438 90 574.542 91.8542 570 93.3125C565.458 94.8125 560.792 95.5625 556 95.5625C549.667 95.5625 543.771 94.4167 538.312 92.125C532.854 89.7917 528.167 86.5833 524.25 82.5C520.375 78.375 517.333 73.375 515.125 67.5ZM600.5 93C599.542 93 599.083 92.5 599.125 91.5C599.167 90.4583 599.625 89.6875 600.5 89.1875C601.75 88.4375 602.75 87.375 603.5 86C604.292 84.5833 604.833 82.875 605.125 80.875C605.458 78.8333 605.667 77.0833 605.75 75.625C605.833 74.1667 605.875 72.2708 605.875 69.9375V27.1875C605.875 16.4792 604.083 10.0833 600.5 8C599.625 7.5 599.167 6.77083 599.125 5.8125C599.083 4.85417 599.542 4.3125 600.5 4.1875L624.062 1.25C625.146 1.08333 626 1.29167 626.625 1.875C627.292 2.41667 627.625 3.27083 627.625 4.4375V63.4375C627.625 63.5625 627.625 64.3125 627.625 65.6875C627.625 67.0208 627.625 68 627.625 68.625C627.625 69.25 627.646 70.3125 627.688 71.8125C627.729 73.3125 627.792 74.5208 627.875 75.4375C628 76.3125 628.125 77.4375 628.25 78.8125C628.417 80.1875 628.646 81.3333 628.938 82.25C629.229 83.1667 629.542 84.125 629.875 85.125C630.25 86.125 630.688 86.9583 631.188 87.625C631.729 88.2917 632.333 88.8125 633 89.1875C633.875 89.6875 634.333 90.4583 634.375 91.5C634.417 92.5 633.958 93 633 93H600.5ZM636.188 32.8125C635.312 32.3125 634.854 31.5833 634.812 30.625C634.771 29.625 635.229 29.0833 636.188 29L659.875 26.8125C661 26.7292 661.875 27 662.5 27.625C663.167 28.25 663.5 29.125 663.5 30.25C663.5 32.7083 663.479 36.9583 663.438 43C663.396 49 663.375 53.6875 663.375 57.0625C663.375 57.7708 663.333 59.1875 663.25 61.3125C663.167 63.3958 663.104 65.2917 663.062 67C663.062 68.6667 663.104 70.6667 663.188 73C663.271 75.3333 663.521 77.375 663.938 79.125C664.354 80.875 664.896 82.5625 665.562 84.1875C666.229 85.7708 667.167 87 668.375 87.875C669.625 88.75 671.104 89.1875 672.812 89.1875C675.438 89.1875 677.688 88.625 679.562 87.5C681.438 86.3333 682.771 84.9583 683.562 83.375C684.354 81.75 684.958 80.125 685.375 78.5C685.792 76.875 686 75.5 686 74.375V72.625H686.125V50C686.125 49.8333 686.125 49.2708 686.125 48.3125C686.125 47.3125 686.125 46.625 686.125 46.25C686.125 45.875 686.104 45.2292 686.062 44.3125C686.021 43.3542 685.938 42.625 685.812 42.125C685.729 41.5833 685.604 40.8958 685.438 40.0625C685.312 39.2292 685.104 38.5417 684.812 38C684.521 37.4167 684.188 36.8125 683.812 36.1875C683.479 35.5208 683.042 34.9375 682.5 34.4375C682 33.9375 681.417 33.5 680.75 33.125C679.875 32.625 679.417 31.875 679.375 30.875C679.333 29.875 679.792 29.3333 680.75 29.25L704.188 27.1875C705.354 27.0625 706.25 27.3125 706.875 27.9375C707.542 28.5208 707.875 29.3958 707.875 30.5625V58.5625C707.875 59.3125 707.854 60.5625 707.812 62.3125C707.812 64.0625 707.812 65.4583 707.812 66.5C707.812 67.5417 707.833 68.9167 707.875 70.625C707.917 72.3333 707.979 73.75 708.062 74.875C708.146 75.9583 708.271 77.2292 708.438 78.6875C708.604 80.1458 708.812 81.375 709.062 82.375C709.354 83.375 709.688 84.375 710.062 85.375C710.438 86.375 710.896 87.2083 711.438 87.875C711.979 88.5 712.583 88.9792 713.25 89.3125C714.25 89.8125 714.708 90.5625 714.625 91.5625C714.542 92.5208 713.875 93 712.625 93C705.708 93 700.229 92.1667 696.188 90.5C692.146 88.8333 689.354 86.25 687.812 82.75C684.729 89.5833 679.396 93 671.812 93C668.896 93 666.083 92.7083 663.375 92.125C660.708 91.5417 658.021 90.5 655.312 89C652.604 87.5 650.25 85.5833 648.25 83.25C646.292 80.9167 644.688 77.8542 643.438 74.0625C642.229 70.2708 641.625 65.9583 641.625 61.125C641.625 60.5417 641.625 59.6875 641.625 58.5625C641.625 55.0208 641.583 52.2917 641.5 50.375C641.458 48.4167 641.292 46.0417 641 43.25C640.708 40.4583 640.146 38.2292 639.312 36.5625C638.521 34.8542 637.479 33.6042 636.188 32.8125ZM727.375 93C723.708 93 721.729 92.2917 721.438 90.875C721.271 90.125 721.583 89.5208 722.375 89.0625C725.958 86.8542 727.75 79 727.75 65.5V29C727.75 24.125 727.312 19.7083 726.438 15.75C725.562 11.7917 724.208 9.25 722.375 8.125C721.5 7.625 721.042 6.89583 721 5.9375C720.958 4.97917 721.417 4.4375 722.375 4.3125L745.938 1.375C747.021 1.20833 747.875 1.41667 748.5 2C749.167 2.54167 749.5 3.39583 749.5 4.5625V34.875C753.5 29.3333 759.688 26.5625 768.062 26.5625C773.979 26.5625 779.417 27.9167 784.375 30.625C789.333 33.2917 793.354 37.2917 796.438 42.625C799.521 47.9167 801.062 54.0417 801.062 61C801.062 66 800.167 70.5625 798.375 74.6875C796.625 78.7708 794.25 82.125 791.25 84.75C788.292 87.375 784.917 89.4167 781.125 90.875C777.375 92.2917 773.438 93 769.312 93C759.771 93 753 88.7708 749 80.3125C748.083 84.5625 745.875 87.75 742.375 89.875C738.917 91.9583 733.917 93 727.375 93ZM764.5 30.6875C762.833 30.6875 761.271 30.9375 759.812 31.4375C758.354 31.8958 757.125 32.5 756.125 33.25C755.167 33.9583 754.292 34.7708 753.5 35.6875C752.708 36.6042 752.062 37.5208 751.562 38.4375C751.104 39.3542 750.708 40.1875 750.375 40.9375C750.083 41.6458 749.875 42.25 749.75 42.75L749.5 43.4375V68.1875C749.5 68.4375 749.521 68.8542 749.562 69.4375C749.604 70.0208 749.75 71.0208 750 72.4375C750.292 73.8125 750.667 75.1875 751.125 76.5625C751.625 77.8958 752.354 79.3542 753.312 80.9375C754.271 82.5208 755.396 83.8958 756.688 85.0625C757.979 86.2292 759.667 87.2083 761.75 88C763.833 88.7917 766.146 89.1875 768.688 89.1875C774.521 89.1875 778.583 85.875 780.875 79.25C783 73.0833 783.25 65.5208 781.625 56.5625C780.125 48.1458 777.521 41.4583 773.812 36.5C770.896 32.6667 767.792 30.7292 764.5 30.6875ZM811.312 93C809.604 91.25 808.75 89.125 808.75 86.625C808.75 84.125 809.604 82 811.312 80.25C813.062 78.5 815.188 77.625 817.688 77.625C820.188 77.625 822.312 78.5 824.062 80.25C825.812 82 826.688 84.125 826.688 86.625C826.688 89.125 825.812 91.25 824.062 93C822.312 94.7083 820.188 95.5625 817.688 95.5625C815.188 95.5625 813.062 94.7083 811.312 93Z" fill="#090F1F"/>
</svg>
