<svg width="120" height="120" viewBox="0 0 120 120" fill="none" xmlns="http://www.w3.org/2000/svg">
<rect width="120" height="120" fill="white"/>
<path d="M77.875 104.312C72.4167 106.604 66.5208 107.75 60.1875 107.75C53.8542 107.75 47.9583 106.604 42.5 104.312C37.0417 101.979 32.3542 98.7708 28.4375 94.6875C24.5625 90.5625 21.5208 85.5625 19.3125 79.6875C17.1042 73.7708 16 67.3333 16 60.375C16 53.4167 17.1042 47 19.3125 41.125C21.5208 35.2083 24.5625 30.2083 28.4375 26.125C32.3542 22 37.0417 18.7917 42.5 16.5C47.9583 14.1667 53.8542 13 60.1875 13C66.5208 13 72.4167 14.1667 77.875 16.5C83.3333 18.7917 88 22 91.875 26.125C95.7917 30.2083 98.8542 35.2083 101.062 41.125C103.271 47 104.375 53.4167 104.375 60.375C104.375 67.3333 103.271 73.7708 101.062 79.6875C98.8542 85.5625 95.7917 90.5625 91.875 94.6875C88 98.7708 83.3333 101.979 77.875 104.312ZM42.25 20.1875C39.5833 21.4375 37.4167 23.1458 35.75 25.3125C34.0833 27.4792 32.9792 29.9375 32.4375 32.6875C31.9375 35.4375 31.7292 38.3542 31.8125 41.4375C31.9375 44.4792 32.4167 47.6875 33.25 51.0625C34.0833 54.3958 35.0208 57.5833 36.0625 60.625C37.1042 63.625 38.3125 66.625 39.6875 69.625C41.1042 72.75 42.6042 75.7292 44.1875 78.5625C45.7708 81.3958 47.6042 84.2708 49.6875 87.1875C51.8125 90.1042 53.9583 92.625 56.125 94.75C58.2917 96.8333 60.6667 98.5417 63.25 99.875C65.875 101.208 68.4792 101.875 71.0625 101.875C73.3125 101.875 75.6667 101.312 78.125 100.188C80.8333 98.9375 83 97.25 84.625 95.125C86.2917 92.9583 87.375 90.5 87.875 87.75C88.4167 85 88.625 82.125 88.5 79.125C88.4167 76.125 87.9583 72.9583 87.125 69.625C86.2917 66.25 85.3542 63.0833 84.3125 60.125C83.2708 57.1667 82.0625 54.1875 80.6875 51.1875C78.8958 47.1875 76.9375 43.4375 74.8125 39.9375C72.7292 36.3958 70.3333 32.9583 67.625 29.625C64.9583 26.2917 62.0208 23.6458 58.8125 21.6875C55.6042 19.6875 52.3958 18.6875 49.1875 18.6875C46.8542 18.6875 44.5417 19.1875 42.25 20.1875Z" fill="#090F1F"/>
</svg>
